<?xml version="1.0" standalone="no"?>
<!DOCTYPE svg PUBLIC "-//W3C//DTD SVG 1.1//EN" "http://www.w3.org/Graphics/SVG/1.1/DTD/svg11.dtd" >
<svg xmlns="http://www.w3.org/2000/svg">
<metadata>
Created by FontForge 20120731 at Fri Jan 29 16:09:28 2016
 By Ads
</metadata>
<defs>
<font id="iconfont" horiz-adv-x="1024" >
  <font-face 
    font-family="iconfont"
    font-weight="500"
    font-stretch="normal"
    units-per-em="1024"
    panose-1="2 0 6 3 0 0 0 0 0 0"
    ascent="896"
    descent="-128"
    x-height="792"
    bbox="0 -212 1026 896"
    underline-thickness="50"
    underline-position="-100"
    unicode-range="U+0078-E615"
  />
<missing-glyph horiz-adv-x="374" 
d="M34 0v682h272v-682h-272zM68 34h204v614h-204v-614z" />
    <glyph glyph-name=".notdef" horiz-adv-x="374" 
d="M34 0v682h272v-682h-272zM68 34h204v614h-204v-614z" />
    <glyph glyph-name=".null" horiz-adv-x="0" 
 />
    <glyph glyph-name="nonmarkingreturn" horiz-adv-x="341" 
 />
    <glyph glyph-name="x" unicode="x" horiz-adv-x="1001" 
d="M281 543q-27 -1 -53 -1h-83q-18 0 -36.5 -6t-32.5 -18.5t-23 -32t-9 -45.5v-76h912v41q0 16 -0.5 30t-0.5 18q0 13 -5 29t-17 29.5t-31.5 22.5t-49.5 9h-133v-97h-438v97zM955 310v-52q0 -23 0.5 -52t0.5 -58t-10.5 -47.5t-26 -30t-33 -16t-31.5 -4.5q-14 -1 -29.5 -0.5
t-29.5 0.5h-32l-45 128h-439l-44 -128h-29h-34q-20 0 -45 1q-25 0 -41 9.5t-25.5 23t-13.5 29.5t-4 30v167h911zM163 247q-12 0 -21 -8.5t-9 -21.5t9 -21.5t21 -8.5q13 0 22 8.5t9 21.5t-9 21.5t-22 8.5zM316 123q-8 -26 -14 -48q-5 -19 -10.5 -37t-7.5 -25t-3 -15t1 -14.5
t9.5 -10.5t21.5 -4h37h67h81h80h64h36q23 0 34 12t2 38q-5 13 -9.5 30.5t-9.5 34.5q-5 19 -11 39h-368zM336 498v228q0 11 2.5 23t10 21.5t20.5 15.5t34 6h188q31 0 51.5 -14.5t20.5 -52.5v-227h-327z" />
    <glyph glyph-name="uniE600" unicode="&#xe600;" 
d="M142 107q39 1 65.5 3.5t53.5 6.5t38 12t6 19q-5 10 -22.5 24.5t-32.5 25t-45 30.5q-5 3 -7 4q-50 33 -73 56.5t-24 47.5t23.5 46.5t76.5 52.5q73 42 163 63l-41 -99q-38 -10 -60 -31t-19 -45q4 -31 45.5 -50t96.5 -15t91 28.5t32 55.5q-1 14 -11 26t-27 20l28 128
q37 1 73.5 -2t71.5 -9.5t68 -16.5t63.5 -23.5t58 -30t51.5 -36t43.5 -41.5t35 -47t25.5 -52q19 -58 15.5 -114.5t-33 -109.5t-77 -97.5t-115 -78t-146.5 -50.5q-170 -37 -330.5 11t-240.5 156q-22 29 -33 50t-10.5 35t6.5 22.5t25.5 13.5t39 7t52.5 4zM336 384
q-10 -22 -19 -44.5t-17 -45.5q15 -6 34 -10t41 -4q8 0 16 0.5t15.5 2t14.5 2.5q9 32 16 65q-27 9 -52 17.5t-49 16.5zM433 585l15 -5q9 -3 17.5 -5.5t15.5 -5.5q34 14 52 35t19 42.5t-2.5 45t-12 44t-9.5 39.5t5 30q-18 -6 -37.5 -16.5t-41 -30t-33.5 -43t-10.5 -57.5
t22.5 -73zM442 592q-16 38 -17.5 68.5t11 53.5t32 40t48.5 31q-98 -80 -62 -197q-8 3 -12 4zM343 394l97 -32l39 196l-50 17zM363 403l31 -10l55 164l-16 5zM250 39q-34 0 -58 -12.5t-24 -30.5q0 -9 6.5 -17t17.5 -14t26.5 -9.5t31.5 -3.5q35 0 59 13t24 31q0 11 -11 21
t-30 16t-42 6zM846 264q-17 0 -32.5 -3.5t-26.5 -9.5t-17.5 -14t-6.5 -16q0 -18 24 -31t58.5 -13t59 13t24.5 30.5t-24.5 30.5t-58.5 13zM829 126q-14 0 -26.5 -2t-23 -6t-18 -9.5t-11.5 -12t-4 -13.5q0 -9 6.5 -17t17.5 -14t26.5 -9.5t32.5 -3.5q13 0 25.5 2.5t23 6.5
t18 9.5t11.5 12t4 13.5q0 12 -11 22t-30 15.5t-41 5.5zM688 15q-34 0 -58 -13t-24 -31t24 -30.5t58 -12.5q12 0 22.5 1.5t19.5 4.5t17 7t13 8.5t8 10.5t3 11q0 18 -24 31t-59 13zM457.5 -30q-34.5 0 -58.5 -13t-24 -30.5t24 -30.5t58.5 -13t58.5 13t24 30.5t-24 30.5
t-58.5 13z" />
    <glyph glyph-name="uniE601" unicode="&#xe601;" 
d="M489 693q37 16 76 0q42 -17 348 -147q31 -14 29.5 -33.5t-29.5 -31.5q-324 -136 -344 -144q-23 -9 -42.5 -9.5t-37.5 8.5q-93 39 -356 150q-20 8 -20 28t20 29q17 7 177.5 75t178.5 75zM172 514l336 -142q20 -8 39 0q7 3 91 38.5t164 69.5l81 34q-330 140 -338 143
q-6 3 -17 3t-17 -3zM904 391l-357 -151q-19 -8 -39 0q-14 6 -357 151l-16 -38l354 -149q37 -16 80 1q10 4 97.5 41t170.5 72l83 35zM904 259l-357 -150q-19 -8 -39 0q-14 5 -357 150l-16 -37q332 -140 354 -149q37 -16 80 1q10 4 97.5 41t170.5 72l83 35zM903 128l-356 -151
q-19 -8 -39 0q-6 2 -95.5 40t-175.5 75l-86 36l-16 -38l354 -149q38 -16 80 1q6 2 44.5 18.5t89 37.5t100 42t83.5 36l34 14z" />
    <glyph glyph-name="uniE602" unicode="&#xe602;" 
d="M57 699v-798q0 -23 16.5 -39.5t39.5 -16.5h798q23 0 39.5 16.5t16.5 39.5v798q0 9 -3 17.5t-8 15.5t-12 12t-15.5 8t-17.5 3h-798q-15 0 -28 -7.5t-20.5 -20.5t-7.5 -28zM0 699q0 47 33 80t80 33h798q47 0 80 -33t33 -80v-798q0 -18 -5.5 -35.5t-16 -31.5t-24.5 -24.5
t-31.5 -16t-35.5 -5.5h-798q-30 0 -56.5 15t-41.5 41.5t-15 56.5v798z" />
    <glyph glyph-name="uniE603" unicode="&#xe603;" 
d="M930 432l-273 273q-27 27 -64.5 27t-64.5 -27l-434 -434q-13 -13 -20 -30t-7 -34.5t7 -34.5t20 -30l197 -198v1l-4 4q60 -60 144.5 -60t144.5 60l-10 -10l364 364q27 26 27 64t-27 65zM576.5 -19q-6.5 -7 -16 -7t-16.5 7l-338 338q-6 7 -6 16t6.5 16t16 7t15.5 -7
l338 -338q7 -6 7 -15.5t-6.5 -16.5z" />
    <glyph glyph-name="uniE604" unicode="&#xe604;" 
d="M848 747h-673q-30 0 -55.5 -15t-40.5 -40.5t-15 -56.5v-673q0 -46 32.5 -78.5t78.5 -32.5h673q47 0 79.5 32.5t32.5 78.5v673q0 46 -32.5 79t-79.5 33zM848 19q0 -23 -16.5 -39.5t-39.5 -16.5h-560q-23 0 -39.5 16.5t-16.5 39.5v560q0 15 7.5 28t20.5 20.5t28 7.5h560
q11 0 21.5 -4.5t18 -12t12 -18t4.5 -21.5v-560zM288 187h112v-112h-112v112zM288 355h112v-112h-112v112zM288 523h112v-112h-112v112zM456 187h280v-112h-280v112zM456 355h280v-112h-280v112zM456 523h280v-112h-280v112z" />
    <glyph glyph-name="uniE605" unicode="&#xe605;" horiz-adv-x="1027" 
d="M1026 5v641q0 16 -4 28.5t-10 20t-13.5 12.5t-15 7t-14 2.5t-10.5 0.5h-4h-33h-75h-102h-95h-75q-26 0 -21 0q-11 0 -20 3t-13 6l-3 4l-47 74q-15 22 -32 32t-27 9h-10h-312q-24 0 -42 -8.5t-26.5 -21t-13 -24.5t-5.5 -21l-1 -8v-753q0 -26 7.5 -44t17.5 -24.5
t20.5 -10.5t17.5 -2.5t7 0.5h890q64 0 64 77z" />
    <glyph glyph-name="uniE606" unicode="&#xe606;" 
d="M511 704q-65 0 -124.5 -25.5t-102.5 -68.5t-68 -102t-25 -124q0 -53 16 -101.5t45.5 -88t69 -69t88.5 -46t101 -16.5q87 0 160.5 43t116.5 117t43 161q0 65 -25.5 124t-68.5 102t-102 68.5t-124 25.5zM511 750q19 0 32.5 13.5t13.5 32.5v46q0 9 -4 17.5t-10 14.5
t-14.5 10t-17.5 4q-19 0 -32.5 -13.5t-13.5 -32.5v-46q0 -19 13.5 -32.5t32.5 -13.5zM511 17q-19 0 -32.5 -13.5t-13.5 -32.5v-46q0 -19 13.5 -32t32.5 -13t32.5 13t13.5 32v46q0 10 -4 18.5t-10 14.5t-14.5 9.5t-17.5 3.5zM98 430h-45q-10 0 -18.5 -3.5t-14.5 -9.5
t-9.5 -14.5t-3.5 -17.5q0 -19 13 -32.5t32 -13.5h46q19 0 32.5 13t13.5 32q0 13 -6 23.5t-16.5 16.5t-23.5 6zM969 429h-46q-19 0 -32.5 -13.5t-13.5 -32.5q0 -13 6 -23.5t17 -16.5t23 -6h46q19 0 32.5 13.5t13.5 32.5q0 12 -6 22.5t-17 17t-23 6.5zM832 646l32 33
q13 13 13 32t-13.5 32.5t-32.5 13.5t-32 -14l-32 -33q-9 -9 -12 -20.5t0 -23.5t12 -20.5t21 -11.5t23.5 0t20.5 12zM189 121l-32 -33q-13 -13 -13 -32t14 -32q9 -9 21 -12t23.5 0t20.5 12l32 33q13 14 13 32.5t-13.5 32t-32.5 13.5t-33 -14zM185 640q13 -13 32 -13t32 14
q9 8 12 20t0 24t-12 20l-33 32q-9 9 -20.5 12t-23.5 0t-21 -12q-13 -14 -13 -33t14 -32zM837 127q-9 9 -21 12t-23.5 0t-20.5 -12q-13 -14 -13 -33t14 -32l32 -32q14 -14 33 -13.5t32 13.5q5 6 8.5 12.5t4.5 13.5t0 14t-4.5 13.5t-8.5 11.5z" />
    <glyph glyph-name="uniE607" unicode="&#xe607;" 
d="M361 678l10 -4l-189 -520l-10 4zM554 679l48 -17l-185 -508l-48 17zM785 683l84 -31l-183 -503l-84 30z" />
    <glyph glyph-name="uniE608" unicode="&#xe608;" 
d="M369 607q3 2 7.5 2t8 -2t6 -5.5t2.5 -7.5v-141q306 -48 480 -266q72 -90 97 -169q1 -5 2 -7q2 -15 -10.5 -19t-17.5 4v1q-11 16 -26 34t-65.5 59t-108 69t-151.5 46t-199 8v-13v-32q0 -22 -0.5 -39.5t-0.5 -34.5v-20q0 -10 -9.5 -13t-18.5 4q-1 2 -21 18
q-277 228 -285 234q-17 14 0 29q2 1 80 67t152.5 128.5t77.5 65.5zM360 556l-267 -224l267 -220v111q0 12 4.5 16.5t14.5 5.5h2q14 2 27.5 3.5t49.5 2t70 -2t82.5 -12t93 -25.5t95.5 -44t95 -66q-34 55 -79.5 102t-87.5 78.5t-91.5 57t-85 39t-75.5 24.5t-55.5 13.5
t-31.5 5.5h-4q-9 2 -13.5 4t-7 6.5t-2.5 12.5z" />
    <glyph glyph-name="uniE609" unicode="&#xe609;" 
d="M592 666l16 -4l-195 -727l-16 4z" />
    <glyph glyph-name="uniE60A" unicode="&#xe60a;" 
d="M1024 -180h-1024v864h512v-64h-448v-736h896v448h64v-512zM548 123l-59 122l-122 59l371 371l45 -44l-307 -310l59 -30l30 -59l308 307l44 -45zM964 539l-181 181l23 24q39 38 90 38q26 0 49 -9.5t41 -28.5q38 -39 38 -92q0 -54 -38 -90zM879 714l79 -79q2 6 2 17
q0 29 -19 45q-5 5 -10.5 9t-12 6t-13 3.5t-13.5 1t-13 -2.5zM230 -14l88 265l60 -19l-47 -145l143 47l19 -60z" />
    <glyph glyph-name="uniE60B" unicode="&#xe60b;" 
d="M473 812h78v-1024h-78v1024z" />
    <glyph glyph-name="uniE60C" unicode="&#xe60c;" 
d="M817 590h-610q-21 0 -40 -8.5t-32.5 -22t-21.5 -32t-8 -39.5v-372q0 -42 30 -72t72 -30h610q21 0 40 8t32.5 22t21.5 32.5t8 39.5v372q0 27 -13.5 50.5t-37 37.5t-51.5 14zM868 116q0 -14 -7 -25.5t-18.5 -18.5t-25.5 -7h-610q-10 0 -19.5 4t-16.5 11t-11 16.5t-4 19.5
v372q0 21 15 36t36 15h610q21 0 36 -15t15 -36v-372zM868 116z" />
    <glyph glyph-name="uniE60D" unicode="&#xe60d;" 
d="M632 747h199v-893h-199v893z" />
    <glyph glyph-name="uniE60E" unicode="&#xe60e;" 
d="M495 651h35v-702h-35v702z" />
    <glyph glyph-name="uniE60F" unicode="&#xe60f;" 
d="M930 432l-273 273q-27 27 -64.5 27t-64.5 -27l-434 -434q-13 -13 -20 -30t-7 -34.5t7 -34.5t20 -30l199 -199l-6 6q60 -60 144.5 -60t144.5 60l-1 -1l355 355q18 17 24 40.5t0 47t-24 41.5zM335 -31l-124 122l-88 88q-14 13 -14 32t14 32l80 79l344 -341
q-41 -42 -106 -46.5t-106 34.5zM897 333l-242 -245l-76 -75l-343 341l317 320q14 13 32.5 13t32.5 -13l279 -277q13 -13 13 -32t-13 -32z" />
    <glyph glyph-name="uniE610" unicode="&#xe610;" 
d="M794 -110q-21 0 -39 10.5t-28 28t-10 38.5q0 19 21 67.5t34 72.5t22 39q76 -136 76 -179q0 -32 -22.5 -54.5t-53.5 -22.5zM103 271l332 328l332 -328l-332 -329zM435 526l-230 -226h461zM287 672l37 37l111 -110l-37 -36z" />
    <glyph glyph-name="uniE611" unicode="&#xe611;" 
d="M513 748q-92 0 -175 -35.5t-143.5 -95.5t-96 -143.5t-35.5 -175.5q0 -73 22.5 -141.5t64.5 -124t97 -97t124 -64.5t142 -23q92 0 175 36t143.5 96t96 143.5t35.5 175t-35.5 175t-96 143.5t-143.5 95.5t-175 35.5zM513 -89q-105 0 -194.5 52t-141 141t-51.5 194
q0 79 30.5 151t82.5 123.5t123.5 82.5t150.5 31q105 0 194.5 -52t141 -141t51.5 -195q0 -35 -6 -69t-18 -65.5t-28.5 -60.5t-38 -54t-46.5 -46.5t-54.5 -38.5t-60.5 -28.5t-65.5 -18t-69.5 -6.5z" />
    <glyph glyph-name="uniE612" unicode="&#xe612;" 
d="M910 388l-265 38l-119 241l-119 -241l-265 -38l192 -188l-45 -264l237 124l237 -124l-45 264zM526 119l-168 -89l31 188l-136 133l189 27l84 171l84 -171l188 -27l-136 -133l32 -188z" />
    <glyph glyph-name="uniE613" unicode="&#xe613;" 
d="M930 658l-42 -42l-142 141l43 43q23 23 56 23t57 -23l28 -28q23 -24 23 -57t-23 -57zM237 192q-6 -6 -6 -14.5t6 -14.5t14 -6t14 6l509 510l29 -29l-510 -509q-5 -6 -5 -14t5 -14q2 -2 4 -3l4 -2q2 -1 5 -1h4q2 0 4 1l4 2q2 1 4 3l509 509l28 -28l-537 -538l-251 -105
l109 247l538 537l28 -28zM144 13l121 65l-56 57z" />
    <glyph glyph-name="uniE614" unicode="&#xe614;" 
d="M855 896h-686q-70 0 -119.5 -49.5t-49.5 -119.5v-686q0 -70 49.5 -119.5t119.5 -49.5h686q70 0 119.5 49.5t49.5 119.5v686q0 70 -49.5 119.5t-119.5 49.5zM214 853h596v-1v-2v-294q0 -11 -4.5 -20.5t-11.5 -16.5t-16.5 -11t-20.5 -4h-490q-22 0 -37.5 15t-15.5 37v294v2
v1zM981 41q0 -52 -37 -89t-89 -37h-686q-52 0 -89 37t-37 89v686q0 52 37 89t89 37h3v-1v-2v-294q0 -40 27.5 -67.5t67.5 -27.5h490q26 0 48 12.5t34.5 34.5t12.5 48v294v2v1h3q52 0 89 -37t37 -89v-686zM659 583q6 0 11 3t8 8t3 11v147q0 6 -3 11t-8 7.5t-11 2.5
q-9 0 -15 -6t-6 -15v-147q0 -3 0.5 -6t2 -5t3.5 -4t4.5 -3.5t5 -2.5t5.5 -1z" />
    <glyph glyph-name="uniE615" unicode="&#xe615;" 
d="M893 579q-48 48 -113 65.5t-130 0t-114 -65.5l-25 -25l-25 25q-48 48 -113 65.5t-130 0t-114 -65.5q-74 -74 -74 -178.5t74 -178.5l25 -25l357 -304l357 304l25 25q74 74 74 178.5t-74 178.5z" />
  </font>
</defs>
</svg>
